<svg xmlns="http://www.w3.org/2000/svg" width="24.301" height="24.312" viewBox="0 0 24.301 24.312">
  <g id="noun_User_4203764" transform="translate(-0.113 0.15)">
    <g id="Group_13799" data-name="Group 13799" transform="translate(0.263)">
      <path id="Path_20634" data-name="Path 20634" d="M12.262.266A6.373,6.373,0,0,0,8.734,11.96,11.989,11.989,0,0,0,.264,23.4a.8.8,0,1,0,1.6,0,10.4,10.4,0,0,1,20.8,0,.8.8,0,1,0,1.594,0A11.988,11.988,0,0,0,15.793,11.96,6.372,6.372,0,0,0,12.262.266Zm0,1.589A4.788,4.788,0,1,1,7.467,6.643,4.783,4.783,0,0,1,12.262,1.855Z" transform="translate(-0.263 -0.266)" fill="#b2b2bd" stroke="#b2b2bd" stroke-width="0.3"/>
    </g>
  </g>
</svg>
