<svg xmlns="http://www.w3.org/2000/svg" width="24" height="13.704" viewBox="0 0 24 13.704">
  <g id="noun_Trending_4046837" transform="translate(-2.029 -8)">
    <g id="Group_13774" data-name="Group 13774" transform="translate(2.029 8)">
      <path id="Path_20624" data-name="Path 20624" d="M24.267,8a1.715,1.715,0,0,0-.189.017H19.161a1.711,1.711,0,1,0,0,3.422h1l-6.143,6.135-3.928-3.923a1.715,1.715,0,0,0-2.423,0l-5.14,5.132A1.712,1.712,0,1,0,4.954,21.2L8.882,17.28,12.81,21.2a1.715,1.715,0,0,0,2.423,0l7.355-7.344v1a1.713,1.713,0,0,0,3.427,0V9.937A1.712,1.712,0,0,0,24.267,8Z" transform="translate(-2.029 -8)" fill="#43b0ed"/>
    </g>
  </g>
</svg>
